<svg width="96" height="96" xmlns="http://www.w3.org/2000/svg" xmlns:xlink="http://www.w3.org/1999/xlink" overflow="hidden"><defs><clipPath id="clip0"><rect x="592" y="312" width="96" height="96"/></clipPath></defs><g clip-path="url(#clip0)" transform="translate(-592 -312)"><path d="M684.417 341.011 678.653 338.407C677.515 334.576 674.002 331.941 670.005 331.92L665.979 331.92 665.083 331.944C663.469 331.991 661.942 332.683 660.842 333.866L654.552 340.664C653.26 342.09 651.429 342.909 649.504 342.923L619.572 342.923C616.125 342.927 612.948 344.786 611.257 347.788 605.901 348.194 598.841 344.291 596.868 337.712 596.709 337.183 596.151 336.883 595.622 337.042 595.093 337.201 594.793 337.758 594.952 338.287 597.114 345.494 604.332 349.795 610.401 349.828 610.152 350.683 610.024 351.568 610.022 352.458L610.002 361.877 608.036 369.772C608.016 369.851 608.005 369.932 608.006 370.014L608.006 378C608.006 378.082 608.016 378.163 608.036 378.243L609.468 383.97C609.911 385.752 611.511 387.002 613.348 387L618.002 387C618.554 387 619.001 386.552 619.002 386L619.003 383.402C619.004 381.679 617.717 380.228 616.006 380.023L616.006 372.414 623.423 364.996 630.25 364.932C632.657 366.815 636.636 367.929 641.003 367.929L648.005 367.929 648.005 378C648.006 378.082 648.016 378.163 648.035 378.243L649.468 383.97C649.91 385.752 651.511 387.002 653.347 387L658.001 387C658.553 387 659.001 386.552 659.001 386L659.003 383.402C659.004 381.679 657.716 380.228 656.006 380.023L656.006 367.873C657.414 367.629 658.768 367.14 660.006 366.427L660.006 381C660.006 381.552 660.453 382 661.006 382L661.603 382C662.377 382 663.003 382.627 663.003 383.4 663.003 383.4 663.003 383.4 663.003 383.401L663.003 385 661.006 385C660.453 385 660.006 385.448 660.006 386 660.006 386.552 660.453 387 661.006 387L664.002 387C664.554 387 665.002 386.553 665.002 386.001L665.004 383.402C665.005 381.679 663.717 380.228 662.006 380.023L662.006 364.769C663.536 362.754 664.852 360.585 665.933 358.298L669.682 348.924 678.005 348.924C681.87 348.919 685.001 345.787 685.005 341.922 685.005 341.53 684.775 341.173 684.417 341.011ZM678.005 346.924 669.005 346.924C668.596 346.924 668.228 347.173 668.076 347.552L664.096 357.511C663.049 359.712 661.774 361.796 660.29 363.73 658.792 365.033 656.919 365.828 654.94 365.999 654.415 366.035 654.007 366.471 654.006 366.997L654.006 381C654.006 381.552 654.454 382 655.006 382L655.604 382C656.377 382 657.004 382.627 657.004 383.4 657.004 383.4 657.004 383.4 657.004 383.401L657.003 385 653.348 385C652.43 385.001 651.629 384.376 651.408 383.485L650.006 377.877 650.006 366.929C650.006 366.377 649.558 365.929 649.006 365.929L641.004 365.929C636.914 365.929 633.269 364.898 631.254 363.169 631.07 363.012 630.836 362.927 630.594 362.929L622.997 363C622.734 363.002 622.484 363.108 622.299 363.293L614.299 371.293C614.111 371.48 614.006 371.735 614.006 372L614.006 381C614.006 381.552 614.453 382 615.006 382L615.603 382C616.377 382 617.003 382.627 617.003 383.4 617.003 383.4 617.003 383.4 617.003 383.401L617.003 385 613.348 385C612.43 385.001 611.629 384.376 611.408 383.485L610.006 377.877 610.006 370.137 611.973 362.242C611.993 362.163 612.003 362.082 612.003 362L612.003 353.939 612.023 352.472C612.027 348.305 615.404 344.928 619.572 344.923L649.504 344.923C651.998 344.919 654.373 343.857 656.039 342.001L662.31 335.224C662.582 334.928 662.905 334.685 663.265 334.506L662.941 339.291C662.779 341.714 664.608 343.812 667.031 343.98L667.231 343.994C667.333 344.001 667.435 344.004 667.537 344.004 669.848 344 671.763 342.21 671.921 339.904L672.098 337.31C672.144 336.759 671.736 336.276 671.185 336.229 670.635 336.183 670.151 336.591 670.105 337.142 670.104 337.152 670.103 337.163 670.103 337.173L669.925 339.767C669.835 341.09 668.69 342.089 667.368 341.998 667.368 341.998 667.367 341.998 667.367 341.998L667.167 341.985C665.846 341.893 664.848 340.749 664.936 339.427L665.311 333.942 670.005 333.919C673.26 333.934 676.082 336.177 676.831 339.344 676.901 339.649 677.109 339.904 677.394 340.033L682.967 342.55C682.648 345.048 680.523 346.92 678.005 346.924Z"/><path d="M622.006 380.023 622.006 370C622.006 369.448 621.559 369 621.006 369 620.454 369 620.006 369.448 620.006 370L620.006 381C620.006 381.552 620.454 382 621.006 382L621.604 382C622.377 382 623.004 382.627 623.004 383.4 623.004 383.4 623.004 383.4 623.004 383.401L623.003 385 621.006 385C620.453 385 620.006 385.448 620.006 386 620.006 386.552 620.453 387 621.006 387L624.002 387C624.554 387 625.002 386.553 625.002 386.001L625.004 383.402C625.005 381.679 623.717 380.228 622.006 380.023Z"/><path d="M676.004 340.5C676.004 341.328 675.332 342 674.504 342 673.675 342 673.004 341.328 673.004 340.5 673.004 339.672 673.675 339 674.504 339 675.332 339 676.004 339.672 676.004 340.5Z"/></g></svg>