<svg width="96" height="96" xmlns="http://www.w3.org/2000/svg" xmlns:xlink="http://www.w3.org/1999/xlink" overflow="hidden"><defs><clipPath id="clip0"><rect x="507" y="561" width="96" height="96"/></clipPath></defs><g clip-path="url(#clip0)" transform="translate(-507 -561)"><path d="M585 580C586.105 580 587 580.895 587 582L587 622C587 623.105 586.105 624 585 624L573 624 573 635.172 562.914 625.086 562.328 624.5 525 624.5C523.895 624.5 523 623.605 523 622.5L523 582C523 580.895 523.895 580 525 580L585 580M585 578 525 578C522.791 578 521 579.791 521 582L521 622.5C521 624.709 522.791 626.5 525 626.5L561.5 626.5 575 640 575 626 585 626C587.209 626 589 624.209 589 622L589 582C589 579.791 587.209 578 585 578Z"/><path d="M574 602C574 603.657 572.657 605 571 605 569.343 605 568 603.657 568 602 568 600.343 569.343 599 571 599 572.657 599 574 600.343 574 602Z"/><path d="M558 602C558 603.657 556.657 605 555 605 553.343 605 552 603.657 552 602 552 600.343 553.343 599 555 599 556.657 599 558 600.343 558 602Z"/><path d="M542 602C542 603.657 540.657 605 539 605 537.343 605 536 603.657 536 602 536 600.343 537.343 599 539 599 540.657 599 542 600.343 542 602Z"/></g></svg>