<svg width="96" height="96" xmlns="http://www.w3.org/2000/svg" xmlns:xlink="http://www.w3.org/1999/xlink" overflow="hidden"><defs><clipPath id="clip0"><rect x="677" y="576" width="96" height="96"/></clipPath></defs><g clip-path="url(#clip0)" transform="translate(-677 -576)"><path d="M745 596 745 591C745 590.448 744.552 590 744 590 743.448 590 743 590.448 743 591L743 596 707 596 707 591C707 590.448 706.552 590 706 590 705.448 590 705 590.448 705 591L705 596 691 596 691 658 759 658 759 596ZM757 656 693 656 693 612 757 612ZM693 610 693 598 705 598 705 602C705 602.552 705.448 603 706 603 706.552 603 707 602.552 707 602L707 598 743 598 743 602C743 602.552 743.448 603 744 603 744.552 603 745 602.552 745 602L745 598 757 598 757 610Z"/><path d="M718 650 751 650 751 618 699 618 699 650 718 650ZM718 648 718 640 732 640 732 648ZM718 630 732 630 732 638 718 638ZM716 638 701 638 701 630 716 630ZM734 630 749 630 749 638 734 638ZM734 648 734 640 749 640 749 648ZM749 620 749 628 734 628 734 620ZM732 620 732 628 718 628 718 620ZM716 620 716 628 701 628 701 620ZM701 648 701 640 716 640 716 648Z"/></g></svg>