<?xml version="1.0" standalone="no"?>
<!DOCTYPE svg PUBLIC "-//W3C//DTD SVG 20010904//EN"
 "http://www.w3.org/TR/2001/REC-SVG-20010904/DTD/svg10.dtd">
<svg version="1.0" xmlns="http://www.w3.org/2000/svg"
 width="396.000000pt" height="197.000000pt" viewBox="0 0 396.000000 197.000000"
 preserveAspectRatio="xMidYMid meet">

<g transform="translate(0.000000,197.000000) scale(0.100000,-0.100000)"
fill="#000000" stroke="none">
<path d="M2209 1561 c-8 -6 -36 -30 -61 -55 l-45 -46 -172 0 c-135 0 -178 -3
-201 -15 -17 -9 -30 -20 -30 -25 0 -15 -37 -12 -69 5 -16 8 -45 34 -65 57 -37
45 -47 39 -21 -12 16 -31 89 -80 119 -80 19 0 19 -12 0 -225 -4 -53 -2 -80 9
-108 15 -34 19 -37 56 -37 36 0 41 3 41 24 0 13 -7 29 -15 36 -8 7 -15 29 -15
49 0 30 8 44 38 74 42 41 79 48 128 22 17 -9 56 -15 92 -15 l62 0 0 -60 c0
-33 7 -76 14 -95 14 -32 19 -35 55 -35 36 0 41 3 41 24 0 13 -7 29 -15 36 -22
18 -21 126 1 134 9 3 18 6 20 6 2 0 4 -32 4 -71 0 -57 4 -75 18 -85 16 -12 16
-14 -3 -28 -19 -15 -19 -15 8 -16 22 0 27 4 27 24 0 13 -7 29 -15 36 -11 9
-15 32 -15 82 0 61 5 80 41 154 l41 84 54 0 c41 0 59 5 74 20 26 26 26 57 -2
66 -11 3 -36 22 -53 42 -27 29 -41 35 -81 39 -27 2 -56 -1 -65 -6z m135 -53
c17 -18 40 -38 50 -43 18 -10 18 -12 2 -28 -13 -12 -34 -17 -76 -17 -52 0 -59
-2 -65 -22 -4 -13 -21 -51 -37 -85 -23 -46 -39 -66 -64 -78 l-34 -16 0 -73 c0
-56 4 -75 15 -80 25 -9 17 -28 -12 -24 -33 4 -41 26 -42 121 l-1 67 -67 0
c-41 0 -80 6 -97 15 -15 8 -47 15 -70 15 -36 0 -48 -6 -84 -43 -38 -39 -42
-47 -42 -94 0 -36 4 -53 15 -57 25 -9 17 -28 -12 -24 -35 4 -48 50 -38 133 4
33 10 94 14 135 4 41 11 83 15 92 13 30 65 38 234 38 l166 0 48 50 48 50 0
-33 c0 -38 15 -57 45 -57 27 0 45 18 45 47 0 30 -18 30 -22 1 -4 -32 -42 -31
-46 0 -2 13 -1 30 2 39 10 26 74 9 110 -29z"/>
<path d="M2316 1493 c-11 -11 -6 -23 9 -23 8 0 15 4 15 9 0 13 -16 22 -24 14z"/>
<path d="M1788 1194 c-5 -4 -8 -32 -8 -62 0 -41 5 -58 18 -68 16 -12 16 -14
-3 -28 -19 -15 -19 -15 8 -16 22 0 27 4 27 24 0 13 -7 29 -15 36 -8 7 -15 34
-17 67 -2 30 -6 51 -10 47z"/>
<path d="M2013 675 c0 -22 2 -30 4 -17 2 12 2 30 0 40 -3 9 -5 -1 -4 -23z"/>
<path d="M2183 640 c0 -41 2 -58 4 -38 3 24 10 38 21 41 16 4 16 5 0 6 -11 1
-18 12 -21 34 -2 17 -4 -2 -4 -43z"/>
<path d="M2343 660 c0 -30 2 -43 4 -27 2 15 2 39 0 55 -2 15 -4 2 -4 -28z"/>
<path d="M1628 693 c6 -2 12 -15 12 -28 0 -13 -6 -26 -12 -28 -7 -3 12 -5 42
-5 30 0 49 2 43 5 -7 2 -13 15 -13 28 0 13 6 26 13 28 6 3 -13 5 -43 5 -30 0
-49 -2 -42 -5z m62 -28 c0 -18 -5 -25 -20 -25 -15 0 -20 7 -20 25 0 18 5 25
20 25 15 0 20 -7 20 -25z"/>
<path d="M1813 693 c60 -5 62 -23 2 -23 -41 0 -45 -2 -45 -25 0 -18 5 -25 20
-25 33 0 23 -18 -12 -23 -18 -2 -1 -4 37 -4 39 0 55 2 38 4 -40 5 -43 20 -5
26 16 2 9 5 -20 6 -35 1 -48 5 -48 16 0 11 12 15 45 15 38 0 45 3 45 20 0 18
-6 20 -52 18 l-53 -2 48 -3z"/>
<path d="M1917 679 c4 -12 0 -25 -8 -30 -10 -6 -3 -9 22 -9 33 0 37 3 41 30 4
28 2 30 -28 30 -28 0 -31 -3 -27 -21z m43 -9 c0 -11 -7 -20 -15 -20 -8 0 -15
9 -15 20 0 11 7 20 15 20 8 0 15 -9 15 -20z"/>
<path d="M2121 679 c0 -15 -10 -38 -22 -53 -11 -14 -16 -26 -10 -26 5 0 16 9
23 19 14 20 14 20 26 0 7 -10 17 -19 24 -19 6 0 2 10 -9 23 -12 12 -23 36 -26
52 -4 28 -4 28 -6 4z"/>
<path d="M2248 693 c26 -5 27 -11 6 -41 -8 -12 -11 -22 -5 -22 5 0 13 5 16 10
4 7 14 6 28 -1 21 -12 21 -11 5 8 -10 11 -18 25 -18 31 0 6 8 13 18 15 9 3 -3
5 -28 4 -25 0 -35 -2 -22 -4z"/>
<path d="M1965 620 l50 -7 -47 -1 c-41 -2 -48 -5 -48 -22 0 -18 6 -20 53 -18
50 1 50 2 10 5 -54 5 -56 23 -3 23 29 0 40 4 40 15 0 12 -12 15 -52 13 l-53
-1 50 -7z"/>
<path d="M2250 590 c0 -18 6 -20 53 -18 50 1 50 2 10 5 -29 3 -43 9 -43 19 0
8 -4 14 -10 14 -5 0 -10 -9 -10 -20z"/>
<path d="M1637 593 c18 -2 50 -2 70 0 21 2 7 4 -32 4 -38 0 -55 -2 -38 -4z"/>
</g>
</svg>
