<svg width="96" height="96" xmlns="http://www.w3.org/2000/svg" xmlns:xlink="http://www.w3.org/1999/xlink" overflow="hidden"><defs><clipPath id="clip0"><rect x="1049" y="578" width="96" height="96"/></clipPath></defs><g clip-path="url(#clip0)" transform="translate(-1049 -578)"><path d="M1110.07 636.824C1111.13 634.664 1113.63 629.824 1115.92 627.324 1117.78 625.23 1119.25 622.822 1120.26 620.212 1121.32 617.445 1121.91 614.519 1122 611.557L1122 610.7C1122 596.893 1110.81 585.7 1097 585.7 1083.19 585.7 1072 596.893 1072 610.7L1072 611.56C1072.09 614.521 1072.68 617.447 1073.74 620.213 1074.75 622.823 1076.22 625.231 1078.08 627.325 1080.37 629.815 1082.87 634.667 1083.93 636.825 1084.25 637.475 1084.92 637.886 1085.64 637.886L1108.36 637.886C1109.09 637.886 1109.75 637.474 1110.07 636.824ZM1108.3 635.885 1085.7 635.885C1084.41 633.261 1081.93 628.545 1079.58 625.994 1077.88 624.081 1076.54 621.88 1075.61 619.494 1074.63 616.946 1074.09 614.253 1074 611.525L1074 610.734C1073.99 598.031 1084.28 587.726 1096.98 587.717 1109.69 587.708 1119.99 597.997 1120 610.7L1120 611.529C1119.91 614.253 1119.37 616.944 1118.4 619.489 1117.47 621.869 1116.14 624.065 1114.44 625.974 1112.07 628.57 1109.58 633.281 1108.3 635.885Z"/><path d="M1108.16 643.941 1086.16 643.941C1085.61 643.941 1085.16 644.389 1085.16 644.941 1085.16 645.493 1085.61 645.941 1086.16 645.941L1108.16 645.941C1108.71 645.941 1109.16 645.493 1109.16 644.941 1109.16 644.389 1108.71 643.941 1108.16 643.941Z"/><path d="M1109.16 653.07C1109.16 652.518 1108.71 652.07 1108.16 652.07L1086.16 652.07C1085.61 652.07 1085.16 652.518 1085.16 653.07 1085.16 653.622 1085.61 654.07 1086.16 654.07L1108.16 654.07C1108.71 654.07 1109.16 653.622 1109.16 653.07Z"/><path d="M1102.8 661.08C1102.84 660.529 1102.43 660.047 1101.88 660.003 1101.86 660.001 1101.83 660 1101.8 660L1092.25 660C1091.69 659.998 1091.24 660.444 1091.24 660.997 1091.24 661.025 1091.24 661.053 1091.25 661.081 1091.5 664.271 1094.29 666.653 1097.48 666.401 1100.32 666.176 1102.57 663.921 1102.8 661.081ZM1097.03 664.417C1095.47 664.404 1094.08 663.448 1093.5 662L1100.56 662C1099.99 663.45 1098.59 664.406 1097.03 664.417Z"/></g></svg>