<svg width="96" height="96" xmlns="http://www.w3.org/2000/svg" xmlns:xlink="http://www.w3.org/1999/xlink" overflow="hidden"><defs><clipPath id="clip0"><rect x="802" y="615" width="96" height="96"/></clipPath></defs><g clip-path="url(#clip0)" transform="translate(-802 -615)"><path d="M849.933 629C842.994 628.992 836.506 632.442 832.633 638.2 828.739 643.945 827.917 651.237 830.433 657.705L839.933 678.711 848.133 695.911C848.644 696.905 849.864 697.297 850.859 696.786 851.234 696.592 851.54 696.287 851.733 695.911L859.933 678.711 869.433 657.705C871.948 651.238 871.125 643.949 867.233 638.205 863.361 632.445 856.873 628.993 849.933 629ZM867.587 656.938 858.128 677.853 849.946 695.019 849.919 695.019 841.754 677.89 832.278 656.938C830.02 651.09 830.773 644.506 834.292 639.318 840.116 630.68 851.841 628.399 860.479 634.223 862.493 635.581 864.227 637.316 865.583 639.332 869.096 644.518 869.844 651.096 867.587 656.938Z"/><path d="M849.933 641C844.962 641 840.933 645.029 840.933 650 840.933 654.971 844.962 659 849.933 659 854.904 659 858.933 654.971 858.933 650 858.953 645.049 854.956 641.02 850.005 641 849.981 641 849.957 641 849.933 641ZM849.933 657.005C846.067 657.005 842.933 653.871 842.933 650.005 842.933 646.139 846.067 643.005 849.933 643.005 853.799 643.005 856.933 646.139 856.933 650.005 856.975 653.83 853.908 656.966 850.083 657.008 850.033 657.008 849.983 657.008 849.933 657.008Z"/></g></svg>